<?xml version="1.0" encoding="utf-8"?>
<!-- Generator: Adobe Illustrator 16.0.0, SVG Export Plug-In . SVG Version: 6.00 Build 0)  -->
<!DOCTYPE svg PUBLIC "-//W3C//DTD SVG 1.1//EN" "http://www.w3.org/Graphics/SVG/1.1/DTD/svg11.dtd">
<svg version="1.1" id="Calque_1" xmlns="http://www.w3.org/2000/svg" xmlns:xlink="http://www.w3.org/1999/xlink" x="0px" y="0px"
	 width="100px" height="100.08px" viewBox="0 0 100 100.08" enable-background="new 0 0 100 100.08" xml:space="preserve">
<path d="M50,7.034c-23.677,0-42.942,19.104-42.942,42.589c0,23.489,19.266,42.595,42.942,42.595
	c23.676,0,42.942-19.106,42.942-42.595C92.942,26.138,73.677,7.034,50,7.034z M63.203,13.161
	c6.196,2.309,11.633,6.157,15.825,11.122c2.945,5.153,3.534,7.769,3.354,9.071l-11.869,4.338l-12.708-8.065
	c-0.878-4.611-2.956-12.077-3.617-14.426C57.404,13.21,62.624,13.161,63.203,13.161z M51.402,15.217l-0.021,0.006
	c0.027,0.091,2.607,9.071,3.678,14.432l-11.476,9.418l-18.386-2.738c0,0-1.138-4.892-1.12-8.828l0.002,0.006
	c0.07-0.097,6.477-10.367,17.182-13.698C41.263,13.815,47.633,14.11,51.402,15.217z M33.089,14.767
	c-5.682,3.843-9.68,9.044-10.873,10.708c-1.536,0.647-3.139,1.977-4.478,3.276C21.456,22.78,26.768,17.925,33.089,14.767z
	 M11.989,48.753c0-0.651,0.066-1.29,0.1-1.941c1.038,1.813,2.549,3.173,3.65,4.008c0.925,3.513,3.556,12.48,7.879,19.594
	c-0.128,2.831,0.137,4.764,0.459,6.06C16.659,69.531,11.989,59.689,11.989,48.753z M26.01,69.153
	c-4.454-7.267-7.131-16.95-7.824-19.679c2.78-5.923,6.382-10.401,6.382-10.401l18,2.623c2.044,5.896,4.904,12.027,6.281,14.893
	C46.847,59.58,41.222,67.9,37.9,71.989C34.713,72.035,29.131,70.255,26.01,69.153z M49.998,86.762c-3.301,0-6.49-0.463-9.546-1.261
	c3.176-0.096,5.05-0.851,6.118-1.574c0.962,0.206,3.739,0.735,7.447,0.735c3.781,0,8.515-0.575,13.2-2.586
	c0.249,0.086,0.495,0.131,0.744,0.161C62.609,85.121,56.488,86.762,49.998,86.762z M66.962,79.25c-9.564,4.506-20.001,2-20.11,1.973
	l-0.779-0.398c-2.835-2.602-5.239-6.587-5.701-7.393c-0.024-0.043-0.034-0.086-0.055-0.129c3.413-4.288,8.7-12.101,10.712-15.111
	c10.784-0.469,15.034-1.32,15.034-1.32c0.039,0.06,5.521,7.206,8.119,13.604C72.874,73.596,69.071,77.21,66.962,79.25z
	 M84.428,63.617c-4.356,3.438-8.208,4.789-8.208,4.789c-1.724-3.396-7.757-13.137-7.757-13.137
	c1.995-4.958,2.802-11.797,3.213-15.125l11.355-4.153c2.814,2.729,4.302,7.432,4.795,9.282c0.105,1.15,0.18,2.312,0.18,3.48
	c0,5.615-1.253,10.921-3.45,15.722C84.55,63.903,84.428,63.617,84.428,63.617z"/>
</svg>
